<?xml version="1.0" standalone="no"?><!DOCTYPE svg PUBLIC "-//W3C//DTD SVG 1.1//EN" "http://www.w3.org/Graphics/SVG/1.1/DTD/svg11.dtd"><svg t="1677228514121" class="icon" viewBox="0 0 1024 1024" version="1.1" xmlns="http://www.w3.org/2000/svg" p-id="4427" xmlns:xlink="http://www.w3.org/1999/xlink" width="200" height="200"><path d="M917.333333 896H618.666667c-12.8 0-21.333333-8.533333-21.333334-21.333333s8.533333-21.333333 21.333334-21.333334h298.666666c12.8 0 21.333333 8.533333 21.333334 21.333334s-8.533333 21.333333-21.333334 21.333333zM341.333333 896H149.333333c-12.8 0-21.333333-8.533333-21.333333-21.333333v-192c0-6.4 2.133333-10.666667 6.4-14.933334l576-576c8.533333-8.533333 21.333333-8.533333 29.866667 0l192 192c8.533333 8.533333 8.533333 21.333333 0 29.866667l-576 576c-4.266667 4.266667-8.533333 6.4-14.933334 6.4z m-170.666666-42.666667h162.133333l554.666667-554.666666L725.333333 136.533333l-554.666666 554.666667V853.333333z" fill="#333333" p-id="4428"></path></svg>
